<svg width="31" height="31" viewBox="0 0 31 31" fill="none" xmlns="http://www.w3.org/2000/svg">
<mask id="mask0_4766_3728" style="mask-type:luminance" maskUnits="userSpaceOnUse" x="1" y="1" width="29" height="29">
<path fill-rule="evenodd" clip-rule="evenodd" d="M1.29102 1.29199H29.0528V29.0548H1.29102V1.29199Z" fill="white"/>
</mask>
<g mask="url(#mask0_4766_3728)">
<path fill-rule="evenodd" clip-rule="evenodd" d="M7.88941 25.4139C8.63858 25.4139 9.34512 25.698 10.093 25.999C14.6745 28.1173 20.0931 27.1537 23.6232 23.6249C28.281 18.9646 28.281 11.3838 23.6232 6.72603C21.368 4.47078 18.3687 3.22949 15.1757 3.22949C11.9814 3.22949 8.98087 4.47208 6.72691 6.72732C3.1955 10.2562 2.2345 15.6747 4.33345 20.2123C4.6357 20.9602 4.92762 21.6887 4.92762 22.4456C4.92762 23.2012 4.668 23.962 4.43937 24.6337C4.25079 25.1865 3.96533 26.0209 4.14875 26.2044C4.32829 26.3904 5.16787 26.0971 5.722 25.9073C6.38721 25.6799 7.14154 25.419 7.88941 25.4139ZM15.1434 29.0551C13.1697 29.0551 11.1832 28.6379 9.32446 27.7776C8.77679 27.558 8.264 27.3514 7.89587 27.3514C7.47221 27.3539 6.90258 27.5503 6.35233 27.7402C5.22341 28.1277 3.81808 28.6107 2.77829 27.5748C1.74237 26.5376 2.22029 25.1362 2.60521 24.0085C2.79508 23.4531 2.99012 22.8796 2.99012 22.4456C2.99012 22.0891 2.81833 21.6344 2.55483 20.9796C0.135539 15.7548 1.25412 9.45791 5.35775 5.35687C7.97725 2.73608 11.4635 1.29199 15.1744 1.29199C18.8854 1.29199 22.3729 2.73478 24.9924 5.35557C30.407 10.7702 30.407 19.5794 24.9924 24.9941C22.338 27.6497 18.764 29.0551 15.1434 29.0551Z" fill="#6F7F92"/>
</g>
<path fill-rule="evenodd" clip-rule="evenodd" d="M20.2734 17.0023C19.5604 17.0023 18.9766 16.4249 18.9766 15.7106C18.9766 14.9963 19.5488 14.4189 20.2618 14.4189H20.2734C20.9864 14.4189 21.5651 14.9963 21.5651 15.7106C21.5651 16.4249 20.9864 17.0023 20.2734 17.0023Z" fill="#6F7F92"/>
<path fill-rule="evenodd" clip-rule="evenodd" d="M15.0957 17.0023C14.3827 17.0023 13.7988 16.4249 13.7988 15.7106C13.7988 14.9963 14.3697 14.4189 15.084 14.4189H15.0957C15.8087 14.4189 16.3873 14.9963 16.3873 15.7106C16.3873 16.4249 15.8087 17.0023 15.0957 17.0023Z" fill="#6F7F92"/>
<path fill-rule="evenodd" clip-rule="evenodd" d="M9.91793 17.0023C9.20493 17.0023 8.62109 16.4249 8.62109 15.7106C8.62109 14.9963 9.1933 14.4189 9.9063 14.4189H9.91793C10.6309 14.4189 11.2096 14.9963 11.2096 15.7106C11.2096 16.4249 10.6309 17.0023 9.91793 17.0023Z" fill="#6F7F92"/>
</svg>
