<svg width="20" height="17" viewBox="0 0 20 17" fill="none" xmlns="http://www.w3.org/2000/svg">
<path d="M3.20436 13.3743C2.22363 11.8874 2.63513 9.88149 4.12208 8.90076L7.60033 6.60666L6.51064 4.95449L3.03238 7.24859C0.632391 8.83152 -0.0307356 12.064 1.55219 14.464C3.13512 16.864 6.36763 17.5271 8.76763 15.9442L12.2459 13.6501L11.1562 11.998L7.67793 14.292C6.19098 15.2728 4.18509 14.8613 3.20436 13.3743ZM7.34309 11.8924L14.2996 7.30425L13.1525 5.56512L6.19604 10.1533L7.34309 11.8924ZM11.728 1.51335L8.24976 3.80745L9.33946 5.45961L12.8177 3.16552C14.3047 2.18479 16.3106 2.59629 17.2913 4.08324C18.272 5.57019 17.8605 7.57608 16.3736 8.55681L12.8953 10.8509L13.985 12.5031L17.4633 10.209C19.8632 8.62605 20.5264 5.39354 18.9434 2.99354C17.3605 0.593549 14.128 -0.0695773 11.728 1.51335Z" fill="black"/>
</svg>
