<svg width="34" height="34" viewBox="0 0 34 34" fill="none" xmlns="http://www.w3.org/2000/svg">
<mask id="mask0_4766_3731" style="mask-type:luminance" maskUnits="userSpaceOnUse" x="2" y="4" width="30" height="28">
<path fill-rule="evenodd" clip-rule="evenodd" d="M2.83398 4.25H31.8367V31.8764H2.83398V4.25Z" fill="white"/>
</mask>
<g mask="url(#mask0_4766_3731)">
<path fill-rule="evenodd" clip-rule="evenodd" d="M5.41792 17.1744C7.40409 23.3539 15.251 28.3505 17.3363 29.5872C19.4288 28.3377 27.3323 23.2859 29.2548 17.1801C30.517 13.2332 29.3454 8.23383 24.6903 6.73358C22.4349 6.00967 19.8042 6.45025 17.988 7.85558C17.6083 8.14742 17.0813 8.15308 16.6988 7.86408C14.775 6.41767 12.2618 5.99408 9.97109 6.73358C5.32301 8.23242 4.15567 13.2318 5.41792 17.1744ZM17.3378 31.8766C17.1621 31.8766 16.9878 31.8341 16.8292 31.7477C16.3858 31.5054 5.94067 25.7481 3.39492 17.8232C3.39351 17.8232 3.39351 17.8218 3.39351 17.8218C1.79551 12.8323 3.57484 6.56217 9.31943 4.71058C12.0168 3.83792 14.9563 4.22183 17.3335 5.72208C19.637 4.26575 22.697 3.86342 25.3405 4.71058C31.0908 6.565 32.8758 12.8337 31.2792 17.8218C28.8156 25.656 18.294 31.4997 17.8478 31.7448C17.6891 31.8327 17.5134 31.8766 17.3378 31.8766Z" fill="#6F7F92"/>
</g>
<path fill-rule="evenodd" clip-rule="evenodd" d="M25.7188 15.052C25.1705 15.052 24.7059 14.6313 24.6605 14.076C24.567 12.9115 23.7879 11.9283 22.6786 11.5699C22.119 11.3886 21.813 10.7893 21.993 10.2326C22.1757 9.67438 22.7693 9.37122 23.3303 9.54688C25.2612 10.1716 26.6141 11.8816 26.7799 13.9031C26.8266 14.4882 26.3917 15.001 25.8066 15.0478C25.7769 15.0506 25.7485 15.052 25.7188 15.052Z" fill="#6F7F92"/>
</svg>
