<svg width="34" height="34" viewBox="0 0 34 34" fill="none" xmlns="http://www.w3.org/2000/svg">
<mask id="mask0_4766_3726" style="mask-type:luminance" maskUnits="userSpaceOnUse" x="2" y="4" width="29" height="28">
<path fill-rule="evenodd" clip-rule="evenodd" d="M2.83398 4.25098H30.4576V31.8746H2.83398V4.25098Z" fill="white"/>
</mask>
<g mask="url(#mask0_4766_3726)">
<path fill-rule="evenodd" clip-rule="evenodd" d="M15.3077 20.9925L20.4884 29.3976C20.7151 29.7659 21.0692 29.7616 21.2123 29.7418C21.3554 29.722 21.6997 29.6341 21.8243 29.2162L28.3027 7.33581C28.4161 6.94906 28.2078 6.68556 28.1143 6.59206C28.0237 6.49856 27.7644 6.29881 27.389 6.40506L5.49299 12.8169C5.07791 12.9387 4.98724 13.2872 4.96741 13.4303C4.94757 13.5762 4.94191 13.9375 5.30882 14.1684L13.8102 19.4851L21.3214 11.8946C21.7337 11.4781 22.4066 11.4739 22.8245 11.8861C23.2424 12.2984 23.2452 12.9727 22.833 13.3892L15.3077 20.9925ZM21.1018 31.8753C20.1158 31.8753 19.212 31.3738 18.6793 30.5125L13.1869 21.6002L4.18257 15.969C3.21216 15.3612 2.70499 14.2789 2.86224 13.1413C3.01807 12.0037 3.79866 11.0999 4.89516 10.7783L26.7912 4.36647C27.7984 4.07181 28.8779 4.35089 29.6202 5.09039C30.3626 5.83697 30.6388 6.92781 30.3385 7.93931L23.8601 29.8183C23.5357 30.9191 22.629 31.6968 21.4942 31.8484C21.3611 31.8654 21.2322 31.8753 21.1018 31.8753Z" fill="#6F7F92"/>
</g>
</svg>
