<svg width="25" height="26" viewBox="0 0 25 26" fill="none" xmlns="http://www.w3.org/2000/svg">
<path d="M20.8333 25.5C19.6759 25.5 18.6921 25.1354 17.8819 24.4062C17.0718 23.6771 16.6667 22.7917 16.6667 21.75C16.6667 21.6042 16.6782 21.4529 16.7014 21.2962C16.7245 21.1404 16.7593 21 16.8056 20.875L7.01389 15.75C6.62037 16.0625 6.18056 16.3071 5.69444 16.4837C5.20833 16.6612 4.69907 16.75 4.16667 16.75C3.00926 16.75 2.02546 16.3854 1.21528 15.6562C0.405093 14.9271 0 14.0417 0 13C0 11.9583 0.405093 11.0729 1.21528 10.3438C2.02546 9.61458 3.00926 9.25 4.16667 9.25C4.69907 9.25 5.20833 9.33833 5.69444 9.515C6.18056 9.6925 6.62037 9.9375 7.01389 10.25L16.8056 5.125C16.7593 5 16.7245 4.85958 16.7014 4.70375C16.6782 4.54708 16.6667 4.39583 16.6667 4.25C16.6667 3.20833 17.0718 2.32292 17.8819 1.59375C18.6921 0.864583 19.6759 0.5 20.8333 0.5C21.9907 0.5 22.9745 0.864583 23.7847 1.59375C24.5949 2.32292 25 3.20833 25 4.25C25 5.29167 24.5949 6.17708 23.7847 6.90625C22.9745 7.63542 21.9907 8 20.8333 8C20.3009 8 19.7917 7.91125 19.3056 7.73375C18.8194 7.55708 18.3796 7.3125 17.9861 7L8.19444 12.125C8.24074 12.25 8.27546 12.3904 8.29861 12.5463C8.32176 12.7029 8.33333 12.8542 8.33333 13C8.33333 13.1458 8.32176 13.2967 8.29861 13.4525C8.27546 13.6092 8.24074 13.75 8.19444 13.875L17.9861 19C18.3796 18.6875 18.8194 18.4425 19.3056 18.265C19.7917 18.0883 20.3009 18 20.8333 18C21.9907 18 22.9745 18.3646 23.7847 19.0938C24.5949 19.8229 25 20.7083 25 21.75C25 22.7917 24.5949 23.6771 23.7847 24.4062C22.9745 25.1354 21.9907 25.5 20.8333 25.5ZM20.8333 5.5C21.2269 5.5 21.5565 5.38042 21.8222 5.14125C22.0889 4.90125 22.2222 4.60417 22.2222 4.25C22.2222 3.89583 22.0889 3.59875 21.8222 3.35875C21.5565 3.11958 21.2269 3 20.8333 3C20.4398 3 20.1102 3.11958 19.8444 3.35875C19.5778 3.59875 19.4444 3.89583 19.4444 4.25C19.4444 4.60417 19.5778 4.90125 19.8444 5.14125C20.1102 5.38042 20.4398 5.5 20.8333 5.5ZM4.16667 14.25C4.56018 14.25 4.89028 14.13 5.15694 13.89C5.42268 13.6508 5.55556 13.3542 5.55556 13C5.55556 12.6458 5.42268 12.3487 5.15694 12.1087C4.89028 11.8696 4.56018 11.75 4.16667 11.75C3.77315 11.75 3.44306 11.8696 3.17639 12.1087C2.91065 12.3487 2.77778 12.6458 2.77778 13C2.77778 13.3542 2.91065 13.6508 3.17639 13.89C3.44306 14.13 3.77315 14.25 4.16667 14.25ZM20.8333 23C21.2269 23 21.5565 22.88 21.8222 22.64C22.0889 22.4008 22.2222 22.1042 22.2222 21.75C22.2222 21.3958 22.0889 21.0992 21.8222 20.86C21.5565 20.62 21.2269 20.5 20.8333 20.5C20.4398 20.5 20.1102 20.62 19.8444 20.86C19.5778 21.0992 19.4444 21.3958 19.4444 21.75C19.4444 22.1042 19.5778 22.4008 19.8444 22.64C20.1102 22.88 20.4398 23 20.8333 23Z" fill="black"/>
</svg>
