<svg width="20" height="23" viewBox="0 0 20 23" fill="none" xmlns="http://www.w3.org/2000/svg">
<path d="M10.4167 14.3042V16.4812C9.47388 16.1479 8.46487 16.0457 7.47438 16.1831C6.48389 16.3205 5.54083 16.6936 4.72441 17.271C3.90798 17.8485 3.24202 18.6133 2.78246 19.5015C2.3229 20.3896 2.08314 21.375 2.08333 22.375L2.69226e-07 22.374C-0.000323036 21.102 0.290543 19.8468 0.850311 18.7046C1.41008 17.5624 2.22389 16.5635 3.22939 15.7844C4.23489 15.0053 5.40539 14.4668 6.6512 14.21C7.89701 13.9533 9.18506 13.9851 10.4167 14.3031V14.3042ZM8.33333 13C4.88021 13 2.08333 10.2031 2.08333 6.75C2.08333 3.29687 4.88021 0.5 8.33333 0.5C11.7865 0.5 14.5833 3.29687 14.5833 6.75C14.5833 10.2031 11.7865 13 8.33333 13ZM8.33333 10.9167C10.6354 10.9167 12.5 9.05208 12.5 6.75C12.5 4.44792 10.6354 2.58333 8.33333 2.58333C6.03125 2.58333 4.16667 4.44792 4.16667 6.75C4.16667 9.05208 6.03125 10.9167 8.33333 10.9167ZM15.625 17.7771L17.8344 15.5667L19.3083 17.0406L17.0979 19.25L19.3083 21.4594L17.8344 22.9333L15.625 20.7229L13.4156 22.9333L11.9417 21.4594L14.1521 19.25L11.9417 17.0406L13.4156 15.5667L15.625 17.7771Z" fill="black"/>
</svg>
