<svg width="23" height="23" viewBox="0 0 23 23" fill="none" xmlns="http://www.w3.org/2000/svg">
<path fill-rule="evenodd" clip-rule="evenodd" d="M10.337 0.748748C6.93471 1.09772 3.93467 2.95981 2.11806 5.8501C0.0428388 9.1519 -0.0823866 13.431 1.79629 16.8476C2.64131 18.3844 3.90226 19.7575 5.35109 20.7186C6.74303 21.642 8.27772 22.2135 10.0385 22.4642C10.5363 22.535 12.2224 22.5355 12.7255 22.4649C15.4152 22.0876 17.6382 20.9308 19.4519 18.9646C20.9389 17.3526 21.8929 15.2877 22.2234 12.9663C22.2948 12.4645 22.2948 10.781 22.2234 10.2792C21.9711 8.50683 21.4098 7.00008 20.4774 5.59185C20.0808 4.99293 19.6847 4.50973 19.133 3.95163C17.4295 2.22868 15.3211 1.16541 12.8961 0.806371C12.3745 0.729128 10.8606 0.69505 10.337 0.748748ZM12.6043 1.87863C13.7346 2.02681 14.724 2.32443 15.7111 2.81334C16.7919 3.34858 17.6101 3.94549 18.4434 4.80667C20.2338 6.65686 21.1919 9.03285 21.1919 11.6227C21.1919 14.1868 20.251 16.5458 18.4947 18.3853C17.6592 19.2604 16.8411 19.8643 15.7452 20.4148C13.7497 21.4173 11.4091 21.6966 9.19256 21.1966C7.73656 20.8682 6.25518 20.1357 5.10653 19.1762C3.17893 17.566 1.96668 15.3533 1.63788 12.8451C1.55527 12.2148 1.55301 11.0686 1.63319 10.4269C2.10304 6.66539 4.69153 3.49906 8.26842 2.3104C8.91524 2.09547 9.49368 1.96074 10.1238 1.87829C10.7314 1.79875 11.9964 1.79892 12.6043 1.87863ZM8.61787 6.94378C8.42005 7.01859 8.19195 7.25496 8.14119 7.43772C8.08293 7.64749 8.08251 15.5966 8.14077 15.8062C8.23217 16.1352 8.6479 16.3941 8.9915 16.3361C9.18735 16.303 15.3186 12.2226 15.4537 12.0355C15.5773 11.8641 15.5773 11.3814 15.4537 11.21C15.4059 11.1438 13.9664 10.1541 12.2548 9.01067C8.89476 6.76605 8.97192 6.80989 8.61787 6.94378ZM11.824 10.0233C13.1279 10.8913 14.1947 11.611 14.1947 11.6227C14.1947 11.6393 9.87963 14.5278 9.33007 14.8791L9.20676 14.9579V11.6227V8.28756L9.33007 8.36638C9.39793 8.40971 10.5202 9.15535 11.824 10.0233Z" fill="white"/>
</svg>
