<svg width="282" height="75" viewBox="0 0 282 75" fill="none" xmlns="http://www.w3.org/2000/svg">
<path d="M56.5888 46.4075V68.6169C56.5888 71.8843 54.2211 74.2994 50.9062 74.2994C48.6332 74.2994 45.4605 71.9317 45.4605 68.6169C40.5829 72.6894 35.1371 74.2994 28.6969 74.2994C12.691 74.2994 0 62.4134 0 46.4075C0 30.4017 12.691 17.7106 28.6969 17.7106C44.7028 17.7106 56.5888 30.449 56.5888 46.4075ZM45.4605 46.4075C45.4605 36.8893 38.2152 28.839 28.6969 28.839C19.1786 28.839 11.1283 36.8893 11.1283 46.4075C11.1283 55.9258 19.1786 63.1711 28.6969 63.1711C38.2152 63.1711 45.4605 55.9258 45.4605 46.4075ZM109.2 23.0617V5.54049C109.2 2.46244 111.71 0 114.74 0C117.913 0 120.423 2.5098 120.423 5.54049V45.6025V45.6972C120.423 61.3243 107.59 74.1574 91.9627 74.1574C76.1936 74.1574 63.5026 61.3243 63.5026 45.6972C63.5026 29.9281 76.1936 17.2371 91.9627 17.2371C98.4029 17.2844 104.417 19.4154 109.2 23.0617ZM109.2 45.7446V45.6499C109.2 36.2263 101.481 28.5075 91.9627 28.5075C82.4444 28.5075 74.7256 36.2263 74.7256 45.7446C74.7256 55.1682 82.4444 62.9817 91.9627 62.9817C101.481 62.9817 109.2 55.2629 109.2 45.7446ZM126.863 45.9814C126.863 30.2123 139.696 17.5212 155.323 17.5212C171.092 17.5212 183.783 30.2123 183.783 45.9814C183.783 61.6084 171.092 74.4415 155.323 74.4415C139.696 74.4415 126.863 61.6084 126.863 45.9814ZM138.086 45.9814C138.086 55.4049 145.805 63.2184 155.323 63.2184C164.842 63.2184 172.56 55.4049 172.56 45.9814C172.56 36.4631 164.842 28.7443 155.323 28.7443C145.805 28.7443 138.086 36.4157 138.086 45.9814ZM224.603 23.1564C224.603 26.2345 222.093 28.839 218.921 28.839C209.402 28.839 201.683 36.5578 201.683 46.0761V68.8536C201.683 71.9317 199.174 74.5362 196.143 74.5362C192.97 74.5362 190.46 71.9317 190.46 68.8536V46.0761C190.46 30.307 203.293 17.6159 218.921 17.6159C222.093 17.6159 224.603 20.1257 224.603 23.1564ZM224.272 45.9814C224.272 30.2123 237.105 17.5212 252.732 17.5212C268.501 17.5212 281.192 30.2123 281.192 45.9814C281.192 61.6084 268.501 74.4415 252.732 74.4415C237.057 74.4415 224.272 61.6084 224.272 45.9814ZM235.495 45.9814C235.495 55.4049 243.213 63.2184 252.732 63.2184C262.25 63.2184 269.969 55.4049 269.969 45.9814C269.969 36.4631 262.25 28.7443 252.732 28.7443C243.213 28.7443 235.495 36.4157 235.495 45.9814Z" fill="#FCFCFC"/>
</svg>
