<svg width="22" height="18" viewBox="0 0 22 18" fill="none" xmlns="http://www.w3.org/2000/svg">
<path d="M21.5625 14.6875V1.6875C21.5625 1.25652 21.3913 0.843198 21.0865 0.538451C20.7818 0.233705 20.3685 0.0625 19.9375 0.0625H2.0625C1.63152 0.0625 1.2182 0.233705 0.913451 0.538451C0.608705 0.843198 0.4375 1.25652 0.4375 1.6875V16.3125C0.4375 16.7435 0.608705 17.1568 0.913451 17.4615C1.2182 17.7663 1.63152 17.9375 2.0625 17.9375H19.9375C20.3685 17.9375 20.7818 17.7663 21.0865 17.4615C21.3913 17.1568 21.5625 16.7435 21.5625 16.3125V14.6875ZM19.9375 1.6875V12.7273L17.0227 9.8125C16.7167 9.51106 16.3045 9.34208 15.875 9.34208C15.4455 9.34208 15.0333 9.51106 14.7273 9.8125L12.625 11.9148L8.08516 7.375C7.77923 7.07356 7.36699 6.90458 6.9375 6.90458C6.50801 6.90458 6.09577 7.07356 5.78984 7.375L2.0625 11.1023V1.6875H19.9375ZM19.9375 16.3125H2.0625V13.3977L6.9375 8.52266L11.4773 13.0625C11.6275 13.2142 11.8062 13.3346 12.0032 13.4168C12.2002 13.499 12.4116 13.5413 12.625 13.5413C12.8384 13.5413 13.0498 13.499 13.2468 13.4168C13.4438 13.3346 13.6225 13.2142 13.7727 13.0625L15.875 10.9602L19.9375 15.0227V16.3125ZM12.9805 7.01953C12.8669 6.9064 12.777 6.77181 12.716 6.6236C12.655 6.47539 12.624 6.31653 12.625 6.15625C12.625 5.83302 12.7534 5.52302 12.982 5.29446C13.2105 5.0659 13.5205 4.9375 13.8438 4.9375C14.167 4.9375 14.477 5.0659 14.7055 5.29446C14.9341 5.52302 15.0625 5.83302 15.0625 6.15625C15.0625 6.47948 14.9341 6.78948 14.7055 7.01804C14.477 7.2466 14.167 7.375 13.8438 7.375C13.5209 7.37253 13.2115 7.24514 12.9805 7.01953Z" fill="#6F7F92"/>
</svg>
