<svg width="24" height="24" viewBox="0 0 24 24" fill="none" xmlns="http://www.w3.org/2000/svg">
<path d="M2 16V20.937C2 22.077 5.134 23 9 23C12.866 23 16 22.076 16 20.937V16M9 5C4.582 5 1 5.895 1 7C1 8.105 4.582 9 9 9M1 7V12C1 13.013 4.582 14 9 14M16 16C19.824 16 23 15.013 23 14V4M9.154 4V14.166M9 9C9 10.013 12.253 11 16.077 11C19.9 11 23 10.013 23 9M16 16C16 14.895 12.866 14 9 14C5.134 14 2 14.895 2 16C2 17.105 5.134 18 9 18C12.866 18 16 17.105 16 16ZM23 4C23 2.895 19.9 2 16.077 2C12.253 2 9.154 2.895 9.154 4C9.154 5.105 12.254 6 16.077 6C19.9 6 23 5.105 23 4Z" stroke="#6F7F92" stroke-width="2"/>
</svg>
