<svg width="22" height="21" viewBox="0 0 22 21" fill="none" xmlns="http://www.w3.org/2000/svg">
<path d="M18.8749 9.75197V10.5395C18.8669 12.1289 18.3782 13.6787 17.4729 14.9852C16.5677 16.2916 15.2883 17.2936 13.8029 17.8593C12.3175 18.425 10.6958 18.528 9.15075 18.1548C7.60575 17.7816 6.20985 16.9495 5.14657 15.7681C4.08328 14.5867 3.40238 13.1112 3.19338 11.5355C2.98438 9.95986 3.25707 8.35784 3.97559 6.94007C4.6941 5.5223 5.82482 4.35514 7.2191 3.59202C8.61337 2.8289 10.2059 2.50555 11.7874 2.66447" stroke="#6F7F92" stroke-width="2" stroke-linecap="round" stroke-linejoin="round"/>
<path d="M7.8501 12.1141C7.8501 12.1141 9.03135 13.6891 11.0001 13.6891C12.9688 13.6891 14.1501 12.1141 14.1501 12.1141M8.6376 8.17656H8.64547M13.3626 8.17656H13.3705M14.1501 5.02656H18.8751M16.5126 2.66406V7.38906" stroke="#6F7F92" stroke-width="2" stroke-linecap="round" stroke-linejoin="round"/>
</svg>
