<svg width="24" height="24" viewBox="0 0 24 24" fill="none" xmlns="http://www.w3.org/2000/svg">
<path d="M8.76752 2.19167C9.79802 2.05067 10.664 2.68117 11.074 3.50067L12.0825 5.51717C12.642 6.63617 12.3205 7.94917 11.4725 8.77517C10.9715 9.26267 10.468 9.81967 10.176 10.3112C10.1567 10.3462 10.1506 10.387 10.159 10.4262C10.429 11.8892 11.4205 13.3347 12.305 14.3712C12.3495 14.4206 12.4076 14.4558 12.4719 14.4724C12.5363 14.4891 12.6042 14.4864 12.667 14.4647L14.6545 13.8437C15.1899 13.6763 15.7648 13.6849 16.295 13.8681C16.8251 14.0513 17.2827 14.3995 17.6005 14.8617L19.039 16.9537C19.429 17.5217 19.6265 18.2917 19.3275 19.0322C19.0605 19.6937 18.544 20.6477 17.6045 21.2822C16.6295 21.9402 15.294 22.1902 13.5465 21.5912C11.594 20.9212 9.74952 19.2412 8.22002 17.0927C6.68152 14.9307 5.41502 12.2302 4.64702 9.41417C3.92152 6.75517 4.35952 4.96517 5.39052 3.81267C6.38502 2.70067 7.81002 2.32317 8.76752 2.19167ZM9.95602 4.05967C9.72752 3.60317 9.32002 3.37767 8.93752 3.43017C8.08702 3.54717 7.02202 3.86367 6.32252 4.64617C5.65952 5.38767 5.20052 6.69367 5.85252 9.08517C6.58502 11.7692 7.79102 14.3342 9.23852 16.3677C10.695 18.4142 12.35 19.8592 13.952 20.4087C15.3795 20.8982 16.297 20.6562 16.905 20.2462C17.548 19.8117 17.9435 19.1212 18.1685 18.5642C18.2715 18.3092 18.227 17.9792 18.009 17.6622L16.5705 15.5702C16.4041 15.3281 16.1644 15.1456 15.8868 15.0496C15.6091 14.9536 15.308 14.9491 15.0275 15.0367L13.04 15.6577C12.446 15.8432 11.777 15.6777 11.3545 15.1827C10.434 14.1042 9.26102 12.4502 8.92952 10.6527C8.86615 10.3158 8.92727 9.96737 9.10152 9.67217C9.48052 9.03517 10.0805 8.38567 10.6 7.87967C11.1075 7.38567 11.2515 6.65067 10.9645 6.07617L9.95602 4.06017V4.05967Z" fill="#6F7F92"/>
</svg>
