<svg width="24" height="24" viewBox="0 0 24 24" fill="none" xmlns="http://www.w3.org/2000/svg">
<path d="M12.002 1.97044C12.1435 1.76758 12.3253 1.59606 12.536 1.46658C12.7467 1.3371 12.9819 1.25243 13.2268 1.21786C13.4717 1.1833 13.7211 1.19957 13.9594 1.26567C14.1977 1.33177 14.4199 1.44627 14.612 1.60204L18.536 4.78804C18.8866 5.07256 19.1175 5.47845 19.1828 5.92523C19.2482 6.37201 19.1432 6.82702 18.8888 7.20004H17.4248L17.8928 6.52924C17.9799 6.40499 18.0167 6.25234 17.9958 6.10205C17.9749 5.95175 17.8978 5.81497 17.78 5.71924L15.7592 4.08004L13.604 7.20004H12.1436L14.8244 3.32164L13.8548 2.53444C13.7908 2.4825 13.7168 2.4443 13.6373 2.42224C13.5579 2.40017 13.4748 2.39471 13.3932 2.4062C13.3115 2.41768 13.2331 2.44587 13.1629 2.48899C13.0926 2.53211 13.032 2.58925 12.9848 2.65684L9.81561 7.19884H8.35161L12.002 1.97044V1.97044ZM16.1996 14.4C16.0405 14.4 15.8879 14.4633 15.7753 14.5758C15.6628 14.6883 15.5996 14.8409 15.5996 15C15.5996 15.1592 15.6628 15.3118 15.7753 15.4243C15.8879 15.5368 16.0405 15.6 16.1996 15.6H17.3996C17.5587 15.6 17.7114 15.5368 17.8239 15.4243C17.9364 15.3118 17.9996 15.1592 17.9996 15C17.9996 14.8409 17.9364 14.6883 17.8239 14.5758C17.7114 14.4633 17.5587 14.4 17.3996 14.4H16.1996ZM5.39961 6.00004H8.00241L7.16241 7.20004H5.39961C5.24048 7.20004 5.08787 7.26326 4.97535 7.37578C4.86282 7.4883 4.79961 7.64091 4.79961 7.80004C4.79961 7.95917 4.86282 8.11178 4.97535 8.22431C5.08787 8.33683 5.24048 8.40004 5.39961 8.40004H17.9996C18.6361 8.40004 19.2466 8.6529 19.6967 9.10298C20.1468 9.55307 20.3996 10.1635 20.3996 10.8V18C20.3996 18.6366 20.1468 19.247 19.6967 19.6971C19.2466 20.1472 18.6361 20.4 17.9996 20.4H6.59961C5.80396 20.4 5.0409 20.084 4.47829 19.5214C3.91568 18.9588 3.59961 18.1957 3.59961 17.4V7.80004C3.59961 7.32265 3.78925 6.86481 4.12682 6.52725C4.46438 6.18968 4.92222 6.00004 5.39961 6.00004V6.00004ZM4.79961 17.4C4.79961 17.8774 4.98925 18.3353 5.32682 18.6728C5.66438 19.0104 6.12222 19.2 6.59961 19.2H17.9996C18.3179 19.2 18.6231 19.0736 18.8481 18.8486C19.0732 18.6235 19.1996 18.3183 19.1996 18V10.8C19.1996 10.4818 19.0732 10.1766 18.8481 9.95151C18.6231 9.72647 18.3179 9.60004 17.9996 9.60004H5.39961C5.18961 9.60004 4.98681 9.56404 4.79961 9.49804V17.4Z" fill="#6F7F92"/>
</svg>
